<svg width="12" height="12" viewBox="0 0 12 12" fill="none" xmlns="http://www.w3.org/2000/svg">
<path d="M10.8937 5.09688L6.7062 0.78125C6.52495 0.59375 6.27808 0.5 6.0062 0.5H5.9937C5.72183 0.5 5.47495 0.59375 5.2937 0.78125L1.1062 5.09688C0.715576 5.47188 0.715576 6.075 1.1062 6.44687C1.49683 6.81875 2.12808 6.81875 2.5187 6.44687L4.99995 3.85313V10.5406C4.99995 11.0687 5.44683 11.4969 5.99995 11.4969C6.56245 11.4969 6.99995 11.0687 6.99995 10.5406V3.85313L9.4812 6.44687C9.87183 6.81875 10.5031 6.81875 10.8937 6.44687C11.2843 6.075 11.2843 5.47188 10.8937 5.09688Z" fill="#2CFDBD"/>
</svg>