<svg width="12" height="12" viewBox="0 0 12 12" fill="none" xmlns="http://www.w3.org/2000/svg">
<path d="M1.1062 6.90314L5.2937 11.2188C5.47495 11.4063 5.72183 11.5 5.9937 11.5H6.0062C6.27808 11.5 6.52495 11.4063 6.7062 11.2188L10.8937 6.90314C11.2843 6.52814 11.2843 5.92502 10.8937 5.55314C10.5031 5.18127 9.87183 5.18127 9.4812 5.55314L6.99995 8.14689V1.45939C6.99995 0.931268 6.55308 0.503143 5.99995 0.503143C5.43745 0.503143 4.99995 0.931268 4.99995 1.45939V8.14689L2.5187 5.55314C2.12808 5.18127 1.49683 5.18127 1.1062 5.55314C0.715576 5.92502 0.715576 6.52814 1.1062 6.90314Z" fill="#D21349"/>
</svg>