<svg width="20" height="20" viewBox="0 0 20 20" fill="none" xmlns="http://www.w3.org/2000/svg">
<path d="M10 1.5625C12.2547 1.5625 14.3734 2.43906 15.9672 4.03281C17.5609 5.62656 18.4375 7.74531 18.4375 10C18.4375 12.2547 17.5609 14.3734 15.9672 15.9672C14.3734 17.5609 12.2547 18.4375 10 18.4375C7.74531 18.4375 5.62656 17.5609 4.03281 15.9672C2.43906 14.3734 1.5625 12.2547 1.5625 10C1.5625 7.74531 2.43906 5.62656 4.03281 4.03281C5.62656 2.43906 7.74531 1.5625 10 1.5625ZM10 0.25C4.61406 0.25 0.25 4.61406 0.25 10C0.25 15.3859 4.61406 19.75 10 19.75C15.3859 19.75 19.75 15.3859 19.75 10C19.75 4.61406 15.3859 0.25 10 0.25Z" fill="#C4C4C4"/>
</svg>