<svg width="94" height="42" viewBox="0 0 94 42" fill="none" xmlns="http://www.w3.org/2000/svg">
<g clip-path="url(#clip0)">
<path d="M44.2412 27.3468L41.9525 39.0105L39.6243 27.3468H34.968L38.2925 41.6562H43.6887L47.5854 27.3468H44.2412Z" fill="#FAEB61"/>
<path d="M57.7365 33.7593C57.7365 32.2547 57.2926 31.2044 56.4048 30.5985C55.5169 29.9926 54.2345 29.6897 52.5475 29.6897C51.2454 29.6897 50.0813 29.9017 49.0356 30.3158C47.9899 30.7399 47.467 31.4165 47.467 32.3758C47.467 32.9817 47.6939 33.4362 48.1477 33.729C48.6015 34.0219 49.1638 34.1734 49.8445 34.1734C50.032 34.1734 50.2391 34.1633 50.4759 34.133C50.7126 34.1027 50.8803 34.0522 50.9889 33.9815C50.9297 33.517 50.9001 33.1534 50.9001 32.901C50.9001 31.5882 51.4032 30.9318 52.3996 30.9318C52.8632 30.9318 53.1789 31.1135 53.3466 31.4771C53.5044 31.8406 53.5932 32.3455 53.5932 32.9918V34.8802C51.6202 34.8802 49.9826 35.1226 48.7002 35.5972C47.4177 36.0719 46.7765 37.011 46.7765 38.3945C46.7765 39.4649 47.181 40.2728 48.0096 40.8383C48.8284 41.3937 49.8445 41.6765 51.0579 41.6765C51.6893 41.6765 52.2614 41.5654 52.7744 41.3331C53.2874 41.1009 53.6524 40.7373 53.8793 40.2324C54.2838 41.1009 55.1519 41.5351 56.464 41.5351C56.7994 41.5351 57.1545 41.4846 57.5294 41.3836C57.9043 41.2826 58.2002 41.1413 58.4074 40.9494C57.9733 40.3738 57.7464 39.6164 57.7464 38.6772V33.7593H57.7365ZM53.5834 37.8593C53.5834 38.4955 53.4748 39.0307 53.2677 39.4649C53.0605 39.8992 52.7054 40.1112 52.2319 40.1112C51.7781 40.1112 51.4426 39.9395 51.2256 39.6063C51.0086 39.263 50.9001 38.8287 50.9001 38.2935C50.9001 37.4553 51.127 36.8595 51.5808 36.496C52.0346 36.1324 52.7054 35.9507 53.5932 35.9507V37.8593H53.5834Z" fill="#FAEB61"/>
<path d="M69.7127 33.9107C69.7127 32.5475 69.4267 31.5376 68.8545 30.8509C68.2823 30.1743 67.3649 29.831 66.0923 29.831C65.234 29.831 64.5139 29.9926 63.9318 30.3258C63.3498 30.6591 62.9256 31.2044 62.6395 31.9517L62.4718 30.0027L59.1276 30.2652V41.323H63.2807V34.3854C63.2807 33.7795 63.3005 33.2846 63.3301 32.9009C63.3695 32.5172 63.478 32.1839 63.6556 31.9012C63.843 31.6184 64.1193 31.477 64.504 31.477C64.9677 31.477 65.2636 31.6891 65.382 32.1233C65.5004 32.5576 65.5596 33.1635 65.5596 33.941V38.9297C65.5596 39.8385 65.8062 40.5151 66.2994 40.9695C66.7927 41.4139 67.4931 41.6461 68.4007 41.6461C68.7361 41.6461 69.1011 41.5956 69.476 41.4946C69.8607 41.3937 70.1567 41.2523 70.3638 41.0604C69.9298 40.4848 69.7029 39.7274 69.7029 38.7883V33.9107H69.7127Z" fill="#FAEB61"/>
<path d="M74.8524 30.2653H70.6992V38.9398C70.6992 39.8486 70.9458 40.5252 71.4292 40.9797C71.9126 41.424 72.6229 41.6563 73.5404 41.6563C73.8758 41.6563 74.2408 41.6058 74.6255 41.5048C75.0102 41.4038 75.3062 41.2624 75.5134 41.0705C75.0793 40.4949 74.8524 39.7376 74.8524 38.7984V30.2653Z" fill="#FAEB61"/>
<path d="M80.515 25.721L76.3618 26.1552V38.9499C76.3618 39.8587 76.6084 40.5353 77.0918 40.9898C77.5752 41.4341 78.2855 41.6664 79.2029 41.6664C79.5384 41.6664 79.9034 41.6159 80.2881 41.5149C80.6728 41.4139 80.9688 41.2725 81.1759 41.0806C80.7419 40.505 80.515 39.7477 80.515 38.8085V25.721Z" fill="#FAEB61"/>
<path d="M92.3431 38.6369V33.7593C92.3431 32.2547 91.8992 31.2044 91.0113 30.5985C90.1235 29.9926 88.841 29.6897 87.1541 29.6897C85.8519 29.6897 84.6878 29.9017 83.6422 30.3158C82.5965 30.7399 82.0736 31.4165 82.0736 32.3758C82.0736 32.9817 82.3005 33.4362 82.7543 33.729C83.2081 34.0219 83.7704 34.1734 84.4511 34.1734C84.6385 34.1734 84.8457 34.1633 85.0824 34.133C85.3192 34.1027 85.4869 34.0522 85.5954 33.9815C85.5362 33.517 85.5066 33.1534 85.5066 32.901C85.5066 31.5882 86.0098 30.9318 87.0061 30.9318C87.4698 30.9318 87.7855 31.1135 87.9532 31.4771C88.111 31.8406 88.1998 32.3455 88.1998 32.9918V34.8802C86.2268 34.8802 84.5892 35.1226 83.3067 35.5972C82.0243 36.0719 81.3831 37.011 81.3831 38.3945C81.3831 39.4649 81.7875 40.2728 82.6162 40.8383C83.435 41.3937 84.4511 41.6765 85.6645 41.6765C86.2958 41.6765 86.868 41.5654 87.381 41.3331C87.894 41.1009 88.259 40.7373 88.4859 40.2324C88.9002 41.1009 89.7585 41.5351 91.0705 41.5351C91.4059 41.5351 91.7611 41.4846 92.1359 41.3836C92.5108 41.2826 92.8068 41.1413 93.0139 40.9494C92.5601 40.3334 92.3431 39.576 92.3431 38.6369ZM88.1899 37.8593C88.1899 38.4955 88.0814 39.0307 87.8742 39.4649C87.6671 39.8992 87.3119 40.1112 86.8384 40.1112C86.3846 40.1112 86.0492 39.9395 85.8322 39.6063C85.6152 39.263 85.5066 38.8287 85.5066 38.2935C85.5066 37.4553 85.7335 36.8595 86.1873 36.496C86.6411 36.1324 87.3119 35.9507 88.1998 35.9507V37.8593H88.1899Z" fill="#FAEB61"/>
<path d="M72.7314 28.9626C73.9137 28.9626 74.8721 27.9815 74.8721 26.7712C74.8721 25.561 73.9137 24.5799 72.7314 24.5799C71.5491 24.5799 70.5907 25.561 70.5907 26.7712C70.5907 27.9815 71.5491 28.9626 72.7314 28.9626Z" fill="#44F9BF"/>
<path d="M24.2349 17.2282C24.2645 17.2484 24.2941 17.2787 24.3237 17.2989C24.4026 17.3494 24.4815 17.3999 24.5605 17.4403C24.5999 17.4605 24.6394 17.4706 24.669 17.4706C24.7084 17.4706 24.7282 17.4706 24.7282 17.4605C24.738 17.4504 24.7479 17.4403 24.7479 17.3999C24.7479 17.3696 24.7479 17.3292 24.7479 17.2787C24.738 17.1979 24.7183 17.107 24.6986 17.0161C24.6492 16.8344 24.59 16.6526 24.5309 16.4708C24.4026 16.1073 24.2448 15.7437 24.0277 15.4206C23.8206 15.0974 23.5641 14.7945 23.2879 14.542C23.1497 14.4107 23.0116 14.2896 22.8637 14.1785C22.7946 14.128 22.7157 14.0775 22.6466 14.0371C22.6072 14.0169 22.5776 14.0068 22.548 13.9967C22.5381 13.9967 22.5184 13.9967 22.5184 13.9967C22.5085 13.9967 22.5085 13.9967 22.5085 13.9967C22.5085 13.9967 22.5085 13.9967 22.5085 14.0068C22.5085 14.0169 22.4987 14.027 22.4987 14.0371V14.0472C22.5085 14.4612 22.7946 15.2186 23.2681 15.9962C23.5838 16.5213 23.939 16.9555 24.2349 17.2282Z" fill="#44F9BF"/>
<path d="M28.8714 30.235C28.5656 28.9828 28.4571 27.882 28.5459 27.2155C28.5755 26.9631 28.5952 26.7005 28.5952 26.438C28.5952 26.3774 28.5952 26.3067 28.5952 26.2461C28.5656 25.2969 28.1612 24.3981 27.4706 23.7518C27.4607 23.7417 27.4607 23.7417 27.4509 23.7316C26.3953 22.7622 24.7676 21.7523 23.6331 20.7324C23.5936 20.7021 23.643 20.6415 23.6824 20.6718C24.6887 21.3585 25.0734 21.5806 25.8034 22.1361C26.3657 22.5703 27.7172 23.2368 27.6876 23.1964C30.5288 24.4082 34.7313 20.9848 35.3133 20.4496C35.3429 20.4193 38.4208 18.0058 38.7266 17.8846C38.8055 17.8543 38.8845 17.8038 38.9535 17.7432C39.2495 17.4706 39.2889 17.0061 39.0226 16.7132C38.8746 16.5415 38.6576 16.5213 38.4603 16.4809C37.4738 16.2487 35.6783 15.1278 35.6783 15.1278C34.6326 14.4007 33.8434 13.6534 33.4685 13.1081C33.3304 12.896 33.1726 12.694 32.995 12.4921C32.0283 11.3813 30.7458 10.7249 29.4042 10.5128C28.7629 10.4118 28.102 10.5936 27.5791 10.9975L27.5693 11.0076C26.4742 11.8761 25.2707 13.4413 24.1362 14.2391C25.103 13.1788 25.3102 12.8455 25.9613 12.1992C26.5038 11.664 27.1253 10.9672 27.3917 10.1795C27.4016 10.1391 27.4213 10.0988 27.441 10.0584C27.4706 9.97757 27.4903 9.88669 27.5101 9.8059C27.8159 7.75592 29.2069 1.69688 29.4042 1.28285C29.4535 1.18186 29.4831 1.07078 29.4929 0.939502C29.5225 0.525467 29.2562 0.141728 28.8714 0.0205471C28.3585 -0.141027 26.7209 0.69714 26.3756 0.899108C25.6752 1.31314 20.8906 3.71656 19.7364 4.02961C17.5365 4.63552 15.7509 6.48352 15.2971 8.92734C15.2676 9.05862 15.2873 9.2 15.3267 9.33127C15.8397 10.7551 16.7374 12.4416 17.211 13.8857C17.2208 13.9261 17.1715 13.9462 17.1518 13.9059C16.5401 12.6436 16.2935 12.2396 15.8989 11.3207C15.5339 10.4724 15.0505 9.46255 14.3698 8.80616L14.36 8.79606C14.2219 8.66478 14.0739 8.5436 13.8963 8.46281C13.0972 8.03868 12.1995 7.79632 11.2525 7.77612C10.8875 7.76602 10.5323 7.79632 10.1871 7.84681C9.05258 8.01848 1.60448 7.74583 1.13096 7.61455C1.02244 7.57415 0.904061 7.56405 0.78568 7.58425C0.391079 7.63474 0.0655325 7.96799 0.0162073 8.37193C-0.0429829 8.91724 1.0619 10.4017 1.32826 10.7148C1.8511 11.351 5.06711 15.663 5.58009 16.7536C5.61955 16.8344 5.66887 16.9051 5.72806 16.9657C6.39889 17.6524 7.01052 18.4299 8.75663 18.3895C10.2463 18.3592 12.1897 17.9351 13.7779 17.8745C13.8273 17.8745 13.8371 17.9553 13.7878 17.9553C12.5448 18.1573 12.091 18.2381 11.1538 18.3996C8.9342 18.7935 8.01675 19.4398 8.05621 19.4701C6.24105 20.6617 5.04738 22.7117 4.82048 25.0242C4.35682 29.6493 2.8968 33.3352 2.93626 33.83C2.98558 34.4864 3.50843 35.0216 4.14966 35.0822C4.62318 35.1226 10.9072 32.1739 14.2219 31.1034C14.5967 30.9823 14.9519 30.8207 15.2873 30.6389C15.8003 30.3461 16.1751 29.8512 16.3231 29.2655V29.2554C16.7079 27.7104 16.8558 25.5796 17.2504 23.9134C17.2603 23.8629 17.3392 23.873 17.3392 23.9336C17.1912 25.2666 17.1814 25.7715 17.0137 26.7813C16.8657 27.7407 16.7276 28.9121 16.9446 29.8815C16.9545 29.9219 16.9643 29.9522 16.9939 29.9926C19.1544 33.1736 24.2645 33.9714 25.1326 33.9714C25.1721 33.9714 29.0391 34.2642 29.3548 34.3854C29.4337 34.4157 29.5225 34.4359 29.6113 34.4359C30.0158 34.4359 30.3413 34.1128 30.3413 33.7088C30.3413 33.4867 30.1934 33.3251 30.075 33.1534C29.4831 32.295 28.8714 30.2451 28.8714 30.235ZM18.7598 23.3277C16.3231 23.2065 14.4389 21.0757 14.5573 18.5814C14.6757 16.0871 16.7572 14.1583 19.1938 14.2795C19.5588 14.2997 19.914 14.3603 20.2494 14.4714C20.279 14.5219 20.3283 14.5723 20.3382 14.6127C20.3974 14.7238 20.4763 14.8248 20.5651 14.9056C20.6637 14.9965 20.7624 15.0672 20.8906 15.1076C21.0386 15.1581 21.1964 15.1581 21.3543 15.1379C21.5023 15.1177 21.6996 15.0571 21.8179 15.1682C21.9462 15.2893 21.7883 15.4004 21.7193 15.4913C21.6305 15.6125 21.591 15.764 21.5812 15.9053C21.5713 16.0568 21.5614 16.2285 21.6009 16.3699C21.6897 16.6425 21.9659 16.7536 22.2224 16.7738C22.3901 16.7839 22.5677 16.7637 22.7354 16.7839C22.8834 16.794 23.0511 16.8445 23.0905 17.0061C23.1103 17.0768 23.1103 17.1474 23.1004 17.2181C23.1004 17.3191 23.0905 17.4201 23.0905 17.5211C23.0807 17.713 23.0708 17.8947 23.0609 18.0866C23.0412 18.4198 23.0017 18.7834 23.1694 19.0762C23.2188 19.157 23.2977 19.2681 23.3865 19.3388C23.1103 21.6614 21.0781 23.4387 18.7598 23.3277ZM23.4555 17.8139C23.5246 17.4504 23.6528 16.9051 23.2681 16.6526C23.0807 16.5314 22.8439 16.5314 22.6367 16.5011C22.4888 16.4809 22.3309 16.4507 22.2027 16.3598L22.035 15.8851C22.0448 15.8145 22.0547 15.7438 22.0744 15.6731C22.104 15.4913 22.1336 15.3095 22.1139 15.1278C22.0843 14.9258 21.9659 14.7541 21.7785 14.6733C21.6798 14.6329 21.3148 14.6228 21.2458 14.6026C21.1373 14.5723 21.0485 14.4815 21.009 14.3704C21.009 14.3603 21.009 14.3502 20.9991 14.3401C20.9695 14.1381 21.0879 13.9361 21.2655 13.8453C21.6206 13.6736 22.0152 13.5726 22.4296 13.5726C22.4394 13.5726 22.4592 13.5625 22.469 13.5625C22.5184 13.5625 22.548 13.5625 22.5874 13.5726C22.5874 13.5726 22.5874 13.5726 22.5973 13.5726C22.5973 13.5726 22.5973 13.5726 22.6071 13.5726C22.6762 13.5827 22.7255 13.613 22.7748 13.6332C22.8834 13.6837 22.9721 13.7544 23.0511 13.8251C23.1399 13.8958 23.2089 13.9664 23.2878 14.0472C23.3569 14.128 23.4259 14.2088 23.495 14.2896C23.7515 14.6228 23.9784 14.9662 24.2151 15.3095C24.442 15.6529 24.6887 15.9861 24.9057 16.3497C25.0142 16.5314 25.103 16.7233 25.1721 16.9253C25.2016 17.0263 25.2312 17.1373 25.2411 17.2484C25.2411 17.309 25.2411 17.3696 25.2312 17.4302C25.2312 17.4403 25.2214 17.4605 25.2214 17.4706C25.2312 17.4605 25.2312 17.4605 25.2411 17.4504C25.103 17.8846 24.8761 18.2684 24.5802 18.5713C24.3631 18.8036 24.0277 18.8642 23.7318 18.7531C23.3766 18.6016 23.3963 18.1371 23.4555 17.8139Z" fill="#FAEB61"/>
</g>
<defs>
<clipPath id="clip0">
<rect width="93" height="42" fill="white" transform="translate(0.013916)"/>
</clipPath>
</defs>
</svg>