<svg width="14" height="18" viewBox="0 0 14 18" fill="FFF" xmlns="http://www.w3.org/2000/svg">
<path d="M2.875 7.125H7.32344C8.00312 7.81875 8.95 8.25 10 8.25C12.0719 8.25 13.75 6.57188 13.75 4.5C13.75 2.42812 12.0719 0.75 10 0.75C8.95 0.75 8.00312 1.18125 7.32344 1.875H2.875C1.43125 1.875 0.25 3.05625 0.25 4.5C0.25 5.94375 1.43125 7.125 2.875 7.125ZM2.08281 3.70781C2.29844 3.49219 2.57969 3.375 2.875 3.375H6.42344C6.31094 3.73125 6.25 4.10625 6.25 4.5C6.25 4.89375 6.31094 5.26875 6.42344 5.625H2.875C2.57969 5.625 2.29375 5.50781 2.08281 5.29219C1.86719 5.07656 1.75 4.79531 1.75 4.5C1.75 4.20469 1.86719 3.91875 2.08281 3.70781ZM11.125 10.875H6.67656C5.99688 10.1812 5.05 9.75 4 9.75C1.92812 9.75 0.25 11.4281 0.25 13.5C0.25 15.5719 1.92812 17.25 4 17.25C5.05 17.25 5.99688 16.8188 6.67656 16.125H11.125C12.5688 16.125 13.75 14.9438 13.75 13.5C13.75 12.0562 12.5688 10.875 11.125 10.875ZM11.9172 14.2922C11.7016 14.5078 11.4203 14.625 11.125 14.625H7.57656C7.68906 14.2688 7.75 13.8938 7.75 13.5C7.75 13.1062 7.68906 12.7312 7.57656 12.375H11.125C11.4203 12.375 11.7062 12.4922 11.9172 12.7078C12.1328 12.9234 12.25 13.2047 12.25 13.5C12.25 13.7953 12.1328 14.0812 11.9172 14.2922Z" fill="#FFF"/>
</svg>